<?xml version='1.0' encoding='UTF-8'?>
<svg xmlns="http://www.w3.org/2000/svg" id="Ebene_1" version="1.1" viewBox="0 0 2500 900">
  
  <defs>
    <style>
      .st0 {
        fill: #162e7b;
      }
    </style>
  </defs>
  <g>
    <g>
      <path class="st0" d="M1376.7,226.6c39,30.5,135.5,67.7,135.5,67.7v5.4c-2.2,29.2-35.4,52.9-73.1,47.6-90.2-12.6-62.4-120.7-62.4-120.7h0Z" />
      <path class="st0" d="M1602.8,876.6c19.7-90.2-18.4-175.4-75.8-248.1-38.1-48.4-36.8-70,10.3-111.3,35.9-31.4,58.3-70,63.3-117.1-26.5,31.9-50.7,65.5-79.4,94.2-31,31-68.2,35.9-110.8,16.6-74.5-33.6-129.2-87-163.3-159.7-26.5-57-17.5-113.9,22-162.4,39-48,90.2-70,153.4-56.5,76.3,16.1,132.3,78.5,148.9,165.5,6.3,34.5,31,46.7,60.6,29.6,28.3-16.1,56.5-31.9,91.1-51.6-38.6-4.9-73.6-9.4-111.3-14.4-1.3-7.6-3.1-17.9-4.9-28.3-16.1-82.5-58.3-146.2-133.7-185.7-109.5-57.4-237.8-30.5-327.9,68.6-85.7,94.2-105,243.1-43.5,339.6,63.3,98.7,144.5,179.4,246.3,238.2,18.4,10.8,37.7,20.6,54.7,33.2,54.3,40.4,72.2,94.7,65.5,161.9-6.7,67.3-61.9,122-55.6,126.1,10.3,6.3,161-6.7,189.8-139.1l.4.4Z" />
    </g>
    <path class="st0" d="M51.5,624v83H17.9v-259.3h73.6c21.1,2.7,38.6,11.2,52.9,25.6,17,17.5,25.6,38.1,25.6,62.4s-8.5,45.3-25.6,62.4c-17,17-38.1,26-62.4,26h-30.5ZM51.5,481.4v109h30.5c14.8,0,27.8-5.4,38.1-16.1,10.8-10.8,16.1-23.3,16.1-38.6s-5.4-27.8-16.1-38.6c-10.8-10.8-23.3-15.7-38.1-15.7,0,0-30.5,0-30.5,0Z" />
    <path class="st0" d="M426.1,483.2c26,26,39,57.4,39,93.8s-13,67.7-39,93.8c-26,26-57.4,39-93.8,39s-67.7-13-93.8-39c-26-26-39-57.4-39-93.8s13-67.7,39-93.8c26-26,57.4-39,93.8-39s67.7,13,93.8,39ZM332.3,478.2c-27.4,0-50.7,9.9-70,29.2-19.3,19.3-29.2,42.6-29.2,70s9.9,50.7,29.2,70c19.3,19.3,42.6,29.2,70,29.2s50.7-9.9,70-29.2c19.3-19.3,29.2-42.6,29.2-70s-9.9-50.7-29.2-70c-19.3-19.3-42.6-29.2-70-29.2Z" />
    <path class="st0" d="M510,707v-259.3h33.6v225.6h92.9v33.6h-126.5Z" />
    <path class="st0" d="M771.5,447.7l94.2,259.3h-35.9l-33.2-92h-68.6l-33.2,92h-35.9l94.2-259.3h18.4ZM784.5,581.9l-22.4-61-22,61h44.4Z" />
    <path class="st0" d="M962.2,624h-30.5v83h-33.6v-259.3h73.6c21.1,2.7,38.6,11.2,52.9,25.6,17,17.5,25.6,38.1,25.6,62.4s-8.5,45.3-25.6,62.8c-12.1,12.1-21.1,18.4-27.4,20.2l57.4,88.8h-40.8l-52-83,.4-.4ZM931.7,481.4v109h30.5c14.8,0,27.8-5.4,38.1-16.1,10.8-10.8,16.1-23.3,16.1-38.6s-5.4-27.8-16.1-38.6c-10.8-10.8-23.3-15.7-38.1-15.7,0,0-30.5,0-30.5,0Z" />
    <path class="st0" d="M415.8,781v230.1h-34.5v-230.1h-61.5v-34.1h157.9v34.1h-61.9Z" />
    <path class="st0" d="M544.5,901.7v109.5h-34.1v-264.7h34.1v120.7h81.6v-120.7h34.1v264.7h-34.1v-109.5h-81.6Z" />
    <path class="st0" d="M852.7,746.9v34.1h-108.1v80.7h108.1v34.1h-108.1v80.7h108.1v34.5h-142.7v-264.7h142.7v.4Z" />
    <path class="st0" d="M963.5,926.8h-31.4v84.8h-34.1v-264.7h74.9c21.1,2.7,39,11.7,53.8,26.5,17.5,17.5,26.5,38.6,26.5,63.7s-9,46.2-26.5,63.7c-12.1,12.1-21.5,18.8-27.8,20.6l58.8,90.6h-41.7l-52.9-84.8.4-.4ZM932.6,781v111.3h31.4c15.3,0,28.3-5.4,39-16.1,10.8-10.8,16.1-23.8,16.1-39.5s-5.4-28.3-16.1-39c-10.8-10.8-23.8-16.1-39-16.1h-31.4v-.4Z" />
    <path class="st0" d="M1131.3,746.9l85.7,148.5,85.7-148.5h31.4v264.7h-34.1v-191.1l-82.5,142.7-83-142.7v191.1h-34.1v-264.7h31.4-.4Z" />
  </g>
  </svg>